<svg width="220" height="223" viewBox="0 0 220 223" fill="none" xmlns="http://www.w3.org/2000/svg">
<path d="M139.444 96C143.119 102.364 144.632 109.747 143.758 117.044C142.884 124.34 139.67 131.157 134.597 136.473C129.523 141.789 122.864 145.319 115.616 146.533C108.369 147.747 100.923 146.58 94.3943 143.207C87.8655 139.834 82.6051 134.437 79.4012 127.824C76.1973 121.21 75.2223 113.737 76.6222 106.523C78.0221 99.309 81.7215 92.7428 87.1664 87.8077C92.6113 82.8727 99.5085 79.8346 106.825 79.1485L110 113L139.444 96Z" fill="#08ACFE"/>
<path d="M220 110C220 85.7067 211.958 62.0967 197.129 42.8544C182.3 23.6121 161.518 9.81998 138.027 3.63034C114.535 -2.55931 89.6553 -0.798284 67.2698 8.63861C44.8843 18.0755 26.2525 34.6574 14.2817 55.7966L60.3149 81.8643C66.5286 70.8914 76.2 62.2842 87.8198 57.3857C99.4396 52.4873 112.354 51.5731 124.548 54.786C136.742 57.9989 147.529 65.1581 155.227 75.1463C162.924 85.1345 167.098 97.3899 167.098 110L220 110Z" fill="#08ACFE"/>
<path d="M0.522347 102.293C-2.02062 128.294 4.7736 154.351 19.6887 175.8C34.6039 197.249 56.6661 212.69 81.9261 219.357C107.186 226.025 133.995 223.484 157.552 212.191C181.11 200.897 199.88 181.587 210.5 157.718L162.167 136.212C156.654 148.602 146.912 158.625 134.683 164.487C122.455 170.35 108.539 171.668 95.4275 168.207C82.3157 164.747 70.8637 156.732 63.1216 145.598C55.3795 134.464 51.8528 120.939 53.1728 107.442L0.522347 102.293Z" fill="#08ACFE"/>
</svg>
