<svg width="220" height="220" viewBox="0 0 220 220" fill="none" xmlns="http://www.w3.org/2000/svg">
<circle cx="34" cy="34" r="34" transform="matrix(0.866025 -0.5 -0.5 -0.866025 98 156.89)" fill="#08ACFE"/>
<path d="M32.2183 187.782C50.6208 206.184 74.952 217.466 100.888 219.622C126.823 221.778 152.683 214.668 173.872 199.557C195.06 184.445 210.204 162.311 216.613 137.087C223.021 111.863 220.279 85.1843 208.873 61.7916C197.468 38.399 178.137 19.808 154.318 9.32272C130.499 -1.16255 103.733 -2.86288 78.7783 4.52392C53.8235 11.9107 32.296 27.9062 18.0218 49.6675C3.74765 71.4287 -2.3486 97.5462 0.816547 123.378L53.3255 116.944C51.6825 103.536 54.8469 89.9786 62.2563 78.6828C69.6657 67.3871 80.8401 59.0842 93.7935 55.2499C106.747 51.4156 120.64 52.2982 133.004 57.7408C145.369 63.1835 155.402 72.8336 161.323 84.9762C167.243 97.1187 168.667 110.967 165.34 124.06C162.014 137.153 154.153 148.643 143.154 156.487C132.156 164.331 118.733 168.021 105.27 166.902C91.8074 165.783 79.1777 159.927 69.6254 150.375L32.2183 187.782Z" fill="#08ACFE"/>
</svg>
